<svg xmlns="http://www.w3.org/2000/svg" width="64" height="64" viewBox="0 0 64 64" fill="none">
  <defs>
    <linearGradient id="bg" x1="10" y1="8" x2="54" y2="56" gradientUnits="userSpaceOnUse">
      <stop offset="0" stop-color="#7C3AED"/>
      <stop offset="1" stop-color="#A855F7"/>
    </linearGradient>
    <linearGradient id="page" x1="20" y1="18" x2="44" y2="46" gradientUnits="userSpaceOnUse">
      <stop offset="0" stop-color="#FFFFFF"/>
      <stop offset="1" stop-color="#F3E8FF"/>
    </linearGradient>
  </defs>

  <rect x="6" y="6" width="52" height="52" rx="16" fill="url(#bg)"/>
  <rect x="10" y="10" width="44" height="44" rx="14" fill="white" fill-opacity="0.1"/>

  <path
    d="M20 21.5C20 19.8431 21.3431 18.5 23 18.5H31C33.2091 18.5 35 20.2909 35 22.5V42.5C35 40.8431 33.6569 39.5 32 39.5H24C21.7909 39.5 20 41.2909 20 43.5V21.5Z"
    fill="url(#page)"
  />
  <path
    d="M44 21.5C44 19.8431 42.6569 18.5 41 18.5H33C30.7909 18.5 29 20.2909 29 22.5V42.5C29 40.8431 30.3431 39.5 32 39.5H40C42.2091 39.5 44 41.2909 44 43.5V21.5Z"
    fill="url(#page)"
  />

  <path d="M32 21V43" stroke="#C084FC" stroke-width="2.2" stroke-linecap="round"/>
  <path d="M23 24.5H29" stroke="#7C3AED" stroke-width="2.2" stroke-linecap="round" opacity="0.85"/>
  <path d="M35 24.5H41" stroke="#7C3AED" stroke-width="2.2" stroke-linecap="round" opacity="0.85"/>
  <path d="M23 28.5H27.5" stroke="#A855F7" stroke-width="2" stroke-linecap="round" opacity="0.65"/>
  <path d="M36.5 28.5H41" stroke="#A855F7" stroke-width="2" stroke-linecap="round" opacity="0.65"/>

  <path
    d="M34.7524 31.2273C34.7524 29.2126 33.1014 27.75 30.9668 27.75C29.097 27.75 27.6598 28.8703 27.1818 30.5795"
    stroke="#6D28D9"
    stroke-width="2.6"
    stroke-linecap="round"
  />
  <path
    d="M31 34.0156C31 32.3536 32.0912 31.9687 33.1071 31.0725"
    stroke="#6D28D9"
    stroke-width="2.6"
    stroke-linecap="round"
  />
  <circle cx="31.05" cy="37.9" r="1.6" fill="#6D28D9"/>
</svg>
